<svg width="23" height="23" viewBox="0 0 23 23" fill="none" xmlns="http://www.w3.org/2000/svg">
<path d="M8.90283 18.9904C3.90283 20.4904 3.90283 16.4904 1.90283 15.9904M15.9028 21.9904V18.1204C15.9403 17.6435 15.8759 17.1642 15.7138 16.7142C15.5518 16.2642 15.2958 15.8538 14.9628 15.5104C18.1028 15.1604 21.4028 13.9704 21.4028 8.51039C21.4026 7.11421 20.8655 5.77158 19.9028 4.76039C20.3587 3.53889 20.3265 2.18873 19.8128 0.990386C19.8128 0.990386 18.6328 0.640386 15.9028 2.47039C13.6108 1.84921 11.1948 1.84921 8.90283 2.47039C6.17283 0.640386 4.99283 0.990386 4.99283 0.990386C4.47921 2.18873 4.44698 3.53889 4.90283 4.76039C3.93296 5.77909 3.39535 7.13385 3.40283 8.54039C3.40283 13.9604 6.70283 15.1504 9.84283 15.5404C9.51383 15.8804 9.2601 16.2858 9.09814 16.7303C8.93619 17.1748 8.86964 17.6485 8.90283 18.1204V21.9904" stroke="black" stroke-width="2" stroke-linecap="round" stroke-linejoin="round"/>
</svg>
