<svg width="25" height="25" viewBox="0 0 25 25" fill="none" xmlns="http://www.w3.org/2000/svg">
<path d="M17.6495 2.15012H7.64954C4.88811 2.15012 2.64954 4.38869 2.64954 7.15012V17.1501C2.64954 19.9115 4.88811 22.1501 7.64954 22.1501H17.6495C20.411 22.1501 22.6495 19.9115 22.6495 17.1501V7.15012C22.6495 4.38869 20.411 2.15012 17.6495 2.15012Z" stroke="black" stroke-width="2" stroke-linecap="round" stroke-linejoin="round"/>
<path d="M16.6495 11.5201C16.7729 12.3524 16.6307 13.2023 16.2432 13.9491C15.8557 14.6959 15.2426 15.3015 14.4911 15.6798C13.7396 16.058 12.8879 16.1897 12.0573 16.056C11.2266 15.9224 10.4592 15.5302 9.86433 14.9353C9.2694 14.3404 8.87722 13.573 8.74355 12.7423C8.60989 11.9117 8.74155 11.06 9.11981 10.3085C9.49807 9.55697 10.1037 8.94385 10.8505 8.55635C11.5973 8.16885 12.4472 8.0267 13.2795 8.15011C14.1284 8.276 14.9143 8.67158 15.5212 9.27842C16.128 9.88526 16.5236 10.6712 16.6495 11.5201Z" stroke="black" stroke-width="2" stroke-linecap="round" stroke-linejoin="round"/>
<path d="M18.1495 6.65012H18.1595" stroke="black" stroke-width="2" stroke-linecap="round" stroke-linejoin="round"/>
</svg>
