<svg width="29" height="29" viewBox="0 0 29 29" fill="none" xmlns="http://www.w3.org/2000/svg">
<path d="M16.0844 0.0351768C22.8735 0.0351768 28.3962 5.55794 28.3962 12.3471C28.3962 19.1362 22.8735 24.659 16.0844 24.659C14.0089 24.659 11.9687 24.1665 10.245 23.2167C10.1069 23.3829 9.95385 23.5359 9.7877 23.674L6.27002 27.1917C5.94521 27.5572 5.54912 27.8524 5.10607 28.0593C4.66303 28.2662 4.18237 28.3803 3.69362 28.3947C3.20487 28.4091 2.71834 28.3234 2.26389 28.143C1.80944 27.9625 1.39667 27.6911 1.05092 27.3453C0.705172 26.9996 0.433738 26.5868 0.253287 26.1324C0.0728364 25.6779 -0.0128217 25.1914 0.00156578 24.7026C0.0159533 24.2139 0.130085 23.7332 0.336956 23.2902C0.543827 22.8471 0.839069 22.451 1.20456 22.1262L4.72224 18.6085C4.89359 18.4371 5.08221 18.2839 5.28507 18.1512C4.33529 16.4276 3.73729 14.4225 3.73729 12.3119C3.73729 5.52276 9.26005 0 16.0492 0L16.0844 0.0351768ZM16.0844 3.55286C11.1948 3.55286 7.29015 7.45749 7.29015 12.3471C7.29015 14.6687 8.13439 16.8145 9.61182 18.3975C9.64699 18.4327 9.68217 18.4678 9.71735 18.503C9.8835 18.6411 10.0366 18.7942 10.1746 18.9603C11.7224 20.3674 13.833 21.1764 16.1195 21.1764C21.0091 21.1764 24.9137 17.2718 24.9137 12.3822C24.9137 7.49266 21.0091 3.58804 16.1195 3.58804L16.0844 3.55286Z" fill="black"/>
</svg>
