<svg width="549" height="154" viewBox="0 0 549 154" fill="none" xmlns="http://www.w3.org/2000/svg">
<path d="M51.0017 93.1785H0V78.5814H18.8804V16.5434H1.9616V1.94628H32.1213L32.3665 7.29858C32.5299 10.7046 32.6934 13.7862 32.8569 16.5434C33.0203 19.1385 33.2655 22.139 33.5925 25.545C37.0253 17.7599 42.1745 11.5966 49.0401 7.0553C56.0692 2.51395 64.2425 0.162189 73.5601 0C82.2239 0 89.253 2.27067 94.6474 6.81201C100.042 11.1912 103.229 17.03 104.21 24.3286C107.643 16.8678 112.792 11.029 119.658 6.81201C126.687 2.43286 134.697 0.162189 143.687 0C153.005 0 160.361 2.51395 165.756 7.54186C171.15 12.5698 174.011 19.1385 174.338 27.248V78.5814H191.256V93.1785H140.255V78.5814H158.89V33.3302C158.563 28.4645 156.765 24.3286 153.495 20.9226C150.39 17.3544 145.649 15.4081 139.274 15.0837C134.697 15.0837 130.283 15.8947 126.033 17.5166C121.946 18.9763 118.35 21.0848 115.244 23.842C111.975 26.5993 109.359 29.8431 107.398 33.5735C105.436 37.3038 104.455 41.3586 104.455 45.7378V78.5814H121.129V93.1785H70.1273V78.5814H89.0078V33.3302C88.6808 28.4645 86.8827 24.3286 83.6134 20.9226C80.5075 17.3544 75.6852 15.4081 69.1465 15.0837C64.406 15.0837 59.9107 15.8947 55.6605 17.5166C51.5738 18.9763 47.9776 21.0848 44.8717 23.842C41.6023 26.5993 38.9869 29.9242 37.0253 33.8167C35.2271 37.5471 34.3281 41.683 34.3281 46.2243V78.5814H51.0017V93.1785Z" fill="#1E1E1E"/>
<path d="M273.303 154H222.301V139.403H243.633C247.557 131.618 251.398 123.914 255.158 116.291C259.081 108.668 263.004 101.045 266.928 93.4218C260.389 80.6087 253.932 67.8768 247.557 55.2259C241.181 42.4128 234.725 29.5187 228.186 16.5434H208.325V1.94628H258.346V16.5434H244.124C249.518 27.0858 254.913 37.5471 260.307 47.9273C265.702 58.3075 270.606 68.7688 275.019 79.3112C279.106 69.0932 283.846 58.713 289.241 48.1706C294.635 37.6282 300.03 27.0858 305.424 16.5434H290.712V1.94628H340.488V16.5434H321.607C311.145 37.1417 300.765 57.6588 290.467 78.0948C280.168 98.3686 269.87 118.805 259.572 139.403H273.303V154Z" fill="#1E1E1E"/>
<path d="M408.745 93.1785H357.744V78.5814H376.624V16.5434H359.705V1.94628H389.865L390.11 7.29858C390.274 10.7046 390.437 13.7862 390.601 16.5434C390.764 19.1385 391.009 22.139 391.336 25.545C394.769 17.7599 399.918 11.5966 406.784 7.0553C413.813 2.51395 421.986 0.162189 431.304 0C439.968 0 446.997 2.27067 452.391 6.81201C457.785 11.1912 460.973 17.03 461.954 24.3286C465.387 16.8678 470.536 11.029 477.401 6.81201C484.431 2.43286 492.44 0.162189 501.431 0C510.749 0 518.105 2.51395 523.499 7.54186C528.894 12.5698 531.754 19.1385 532.081 27.248V78.5814H549V93.1785H497.998V78.5814H516.634V33.3302C516.307 28.4645 514.508 24.3286 511.239 20.9226C508.133 17.3544 503.393 15.4081 497.018 15.0837C492.44 15.0837 488.027 15.8947 483.777 17.5166C479.69 18.9763 476.094 21.0848 472.988 23.842C469.719 26.5993 467.103 29.8431 465.141 33.5735C463.18 37.3038 462.199 41.3586 462.199 45.7378V78.5814H478.873V93.1785H427.871V78.5814H446.751V33.3302C446.424 28.4645 444.626 24.3286 441.357 20.9226C438.251 17.3544 433.429 15.4081 426.89 15.0837C422.15 15.0837 417.654 15.8947 413.404 17.5166C409.317 18.9763 405.721 21.0848 402.615 23.842C399.346 26.5993 396.731 29.9242 394.769 33.8167C392.971 37.5471 392.072 41.683 392.072 46.2243V78.5814H408.745V93.1785Z" fill="#1E1E1E"/>
<path d="M220.394 106.356L261.648 25.8092C261.648 25.8092 304.191 9.40067 291.867 41.8112C279.543 74.2217 267.848 90.4283 252.036 121.735L220.394 106.356Z" fill="white"/>
</svg>
