<svg width="24" height="24" viewBox="0 0 24 24" fill="none" xmlns="http://www.w3.org/2000/svg">
<path d="M14.2689 5.74194C15.2457 5.93251 16.1433 6.4102 16.847 7.11388C17.5507 7.81756 18.0284 8.71521 18.2189 9.69194M14.2689 1.74194C16.2982 1.96738 18.1905 2.87612 19.6352 4.31895C21.0798 5.76178 21.9909 7.65295 22.2189 9.68194M21.2189 17.6619V20.6619C21.2201 20.9404 21.163 21.2161 21.0514 21.4713C20.9399 21.7265 20.7762 21.9555 20.571 22.1438C20.3658 22.3321 20.1235 22.4754 19.8597 22.5646C19.5959 22.6539 19.3163 22.687 19.0389 22.6619C15.9618 22.3276 13.0059 21.2761 10.4089 19.5919C7.99276 18.0566 5.94426 16.0081 4.40893 13.5919C2.71891 10.9831 1.66717 8.01294 1.33893 4.92194C1.31394 4.64541 1.3468 4.3667 1.43543 4.10357C1.52405 3.84043 1.6665 3.59863 1.85369 3.39356C2.04089 3.1885 2.26873 3.02465 2.52272 2.91247C2.7767 2.80028 3.05127 2.7422 3.32893 2.74194H6.32893C6.81423 2.73717 7.28472 2.90902 7.65269 3.22548C8.02066 3.54193 8.261 3.98139 8.32893 4.46194C8.45555 5.42201 8.69038 6.36467 9.02893 7.27194C9.16347 7.62987 9.19259 8.01886 9.11283 8.39282C9.03308 8.76679 8.84779 9.11005 8.57893 9.38194L7.30893 10.6519C8.73248 13.1555 10.8054 15.2284 13.3089 16.6519L14.5789 15.3819C14.8508 15.1131 15.1941 14.9278 15.568 14.848C15.942 14.7683 16.331 14.7974 16.6889 14.9319C17.5962 15.2705 18.5389 15.5053 19.4989 15.6319C19.9847 15.7005 20.4283 15.9451 20.7455 16.3194C21.0626 16.6937 21.2311 17.1715 21.2189 17.6619Z" stroke="#3043F2" stroke-width="2" stroke-linecap="round" stroke-linejoin="round"/>
</svg>
