<svg width="266" height="90" viewBox="0 0 266 90" fill="none" xmlns="http://www.w3.org/2000/svg">
<path fill-rule="evenodd" clip-rule="evenodd" d="M22.25 0.375C22.25 0.291667 21.7917 0.166667 20.875 0C14.4583 0.416667 8.45833 1 2.875 1.75C2.20833 3 1.625 3.79167 1.125 4.125V4.375L1.25 4.5C1.83333 4.5 2.33333 5.58333 2.75 7.75V8.75C2.75 9.66667 2.41667 10.3333 1.75 10.75C1.75 11.5833 2.45833 12.375 3.875 13.125C6.20833 12.7083 8.16667 12.5 9.75 12.5C11.3333 12.5 12.125 12.875 12.125 13.625L11.875 20.5L11 49.75C11 50.5 10.7083 50.9167 10.125 51C6.79167 51.5 5.125 52.0417 5.125 52.625C1.70833 53.625 0 54.5 0 55.25V55.375C0.75 60.4583 1.54167 63 2.375 63L18.625 64C22.625 63.8333 24.875 63.6667 25.375 63.5C27.2917 63.5 28.1667 61.7917 28 58.375L27.875 55.375V54.375C27.375 53.2083 26 52.625 23.75 52.625H23.5C23.4167 53.2083 23.25 53.5 23 53.5H22.5L22 53L21.625 26.875V16.75L21.75 16.125C24.6667 14.0417 27.2917 13 29.625 13C31.125 13 32.625 13.2917 34.125 13.875C39.7917 17.2917 42.625 19.9167 42.625 21.75V22H42.5L41.375 21.375C40.875 21.375 40.5833 22.4167 40.5 24.5C40.5 25.5833 40.75 27.0417 41.25 28.875L41 42.625C41 45.2083 41.2083 47.5417 41.625 49.625C41.625 50.2917 41.2917 50.625 40.625 50.625C38.125 51.375 36.875 52 36.875 52.5V53C36.875 57.25 37.5833 59.375 39 59.375L40.25 59.125L50.875 60L54 59.375C54.25 58.9583 54.8333 56.6667 55.75 52.5C55.75 52.0833 55.2917 51.7917 54.375 51.625C52.2917 51.0417 51.25 48.875 51.25 45.125L51.375 41.5V32.5L51.125 29.625C51.2917 26.4583 51.4583 24.5 51.625 23.75C52.7083 21 55.9583 19.375 61.375 18.875C65.625 18.875 68.7083 20.125 70.625 22.625C70.625 23.375 70.7083 23.75 70.875 23.75L71.875 23.25H72.75L73.75 23.5C76 25.25 77.125 26.7917 77.125 28.125L77.375 35.625V35.875C76.7917 39.125 76.5417 44 76.625 50.5C77.125 53.0833 75.875 54.2083 72.875 53.875C71.2083 53.875 70.375 54.4167 70.375 55.5V57.125L71 60.5V60.75L70.625 62V62.125L72.25 63.75C72.25 64.4167 72.3333 64.75 72.5 64.75H73.75L81 64.5L85 65C87.6667 65 90.75 64.7083 94.25 64.125H96C96 62.875 95.9167 61 95.75 58.5C95.75 53.5833 95.0833 51.125 93.75 51.125C91.75 51.7917 90.4167 52.125 89.75 52.125H89.25C88.8333 51.9583 88.625 51.5 88.625 50.75V47.375C86.7917 31.875 85.5 23.3333 84.75 21.75C84.75 17.8333 81.2083 13.0833 74.125 7.5C70.4583 4.91667 66.9167 3.625 63.5 3.625C62.75 3.625 61.7917 3.91667 60.625 4.5C52.0417 9 47.3333 11.25 46.5 11.25L46 11.125C45.8333 10.7083 44.7917 9.25 42.875 6.75C40.4583 3.08333 35.625 1.25 28.375 1.25L22 1.375H21.75V1.25L22.25 0.375ZM15.5 17.625V11.375C15.5 10.7917 15.6667 10.4583 16 10.375C16.5833 10.7083 16.875 11.375 16.875 12.375V12.5C16.7917 21.5833 16.4167 26.125 15.75 26.125H15.625L15.375 25.875V24.625L15.625 22.625L14.75 21.375C15.25 20.125 15.5 18.875 15.5 17.625ZM6.25 10.25C4.75 10.25 4 9.83333 4 9C4 8.33333 6.54167 8 11.625 8H12.125V8.375C10.125 9.625 8.16667 10.25 6.25 10.25ZM24.75 7.625V7.5C24.8333 6.66667 27.75 6.25 33.5 6.25H34.625C35.875 6.25 36.75 7.125 37.25 8.875V9.375H36.875C34.9583 7.70833 33.0833 6.875 31.25 6.875L24.75 7.625ZM65.625 6C65.625 5.83333 65.875 5.625 66.375 5.375H66.5C70.75 6.375 72.875 7.29167 72.875 8.125V8.5H70.5C69.4167 8.5 68.5 7.95833 67.75 6.875C66.3333 6.45833 65.625 6.16667 65.625 6ZM7.625 57.625L8 57.25H8.5L9.125 57.625C12.0417 57.9583 14.5417 58.0417 16.625 57.875L19.875 58V58.5C17.625 58.8333 15.4583 59.0417 13.375 59.125C12.7917 59.125 12.3333 58.8333 12 58.25C9.08333 58.9167 7.625 58.7083 7.625 57.625ZM35.5 11.875C34.3333 11.875 32.9583 11.4583 31.375 10.625C29.0417 10.0417 27.875 9.625 27.875 9.375C27.875 9.20833 28.1667 9.08333 28.75 9H29.5C31.8333 9 33.9583 9.83333 35.875 11.5L35.625 11.875H35.5ZM68.5 16.125L68.875 15.75H71.25C72.5 16.6667 73.4167 17.5 74 18.25V18.875L73.625 19.125C72.0417 19.125 70.3333 18.125 68.5 16.125ZM63.375 11.5V11.25C63.4583 10.6667 64.125 10.375 65.375 10.375H65.625C68.0417 10.375 69.375 10.75 69.625 11.5C69.375 11.9167 67.5417 12.125 64.125 12.125C63.875 12.125 63.625 11.9167 63.375 11.5ZM79.25 34.875L79.5 34.375H80.25L80.875 35V39.875L80.25 40.5H80L79.625 40V39.625L79.25 34.875ZM3.125 54.75H3.5L3.625 54.875L4.375 61.125H4C3.33333 61.125 2.70833 59.7083 2.125 56.875C2.79167 56.2083 3.125 55.5 3.125 54.75ZM43.375 34L43.625 32.875C44.0417 32.875 44.3333 34.5 44.5 37.75C44.5 39.0833 44.3333 40.125 44 40.875H43.625L43.375 38.625V34ZM21.25 4.125V4C21.25 3.08333 22.875 2.625 26.125 2.625H29.875V2.875L21.75 4.375L21.25 4.125ZM47.5 14.375V13.25C47.75 12.75 48.1667 12.5 48.75 12.5H51.875C50.2917 14 49 14.75 48 14.75L47.5 14.375ZM18.875 16.125H19.125C19.5417 16.125 19.75 16.8333 19.75 18.25V19.25C19.75 21.5 19.4583 22.625 18.875 22.625L18.625 22V20.375C18.625 18.875 18.7083 17.4583 18.875 16.125ZM75.125 13.25H75.5C77.4167 14.9167 78.375 16.2083 78.375 17.125V17.375H77.5V17C76.25 16 75.4583 15 75.125 14V13.25ZM56.125 9.625V9.375C56.125 8.20833 57.5833 7.16667 60.5 6.25V6.75C58.1667 8.66667 56.75 9.625 56.25 9.625H56.125ZM80.5 57.125V56.75C80.5 56.3333 82 56.125 85 56.125H85.25L85.75 56.375C85.75 56.875 84.5417 57.125 82.125 57.125H80.5ZM75.5 58.875V58.625C76.3333 58.0417 76.9583 57.75 77.375 57.75H79.25C79.8333 57.75 80.1667 57.9167 80.25 58.25C80.0833 58.6667 79.5833 58.875 78.75 58.875H75.5ZM81.875 28.25H81.375L79.875 26C80.0417 25.5833 80.2083 25.375 80.375 25.375H81.5C81.75 25.5417 81.875 25.875 81.875 26.375V27.375V28.25ZM12.875 49.625H15.5C15.4167 50.9583 14.8333 51.625 13.75 51.625H13.375C13.125 51.625 12.9583 50.9583 12.875 49.625ZM4.375 5.625L6.75 5.375H9.5L9.875 5.75C9.875 6.08333 8.16667 6.25 4.75 6.25L4.375 6V5.625ZM5.5 56L5.375 54.125C5.375 53.7083 5.54167 53.5 5.875 53.5H7.125L8.25 53.75V54.125C7.16667 54.5417 6.33333 55.1667 5.75 56H5.5ZM21.25 57.875L21.75 57.5C23.4167 57.5 24.25 57.7083 24.25 58.125V58.625L23.625 59.125C22.0417 59.0417 21.25 58.625 21.25 57.875ZM17.375 50.375V50.125L19.875 52.25C19.875 52.6667 19.7917 52.875 19.625 52.875H18.875C17.875 52.875 17.375 52.0417 17.375 50.375ZM40.25 11.5H40.375C41.7917 12 42.5 12.3333 42.5 12.5V13.875C41 13.2083 40.25 12.4583 40.25 11.625V11.5ZM77.75 20.5H78C79.0833 21.5833 79.625 22.7083 79.625 23.875V24.125C79.0417 24.125 78.4167 23 77.75 20.75V20.5ZM33.875 4H34.625C36.7083 4 37.75 4.25 37.75 4.75V5H37.5C37 5 35.7917 4.79167 33.875 4.375V4ZM39.75 8.5H40C41 9.25 41.7083 10.125 42.125 11.125V11.25H41.75C41.1667 10.9167 40.5 10.1667 39.75 9V8.5ZM19.75 56.625L23 56.375H24V56.875L22.125 57.125H19.75V56.625ZM52.75 11.125L52.625 10.875C52.7917 10.4583 53.5 10.125 54.75 9.875L55.125 10C55.125 10.6667 54.5833 11.0417 53.5 11.125H52.75ZM84.5 53L84.125 52.625V52.375C84.125 51.875 84.2917 51.5 84.625 51.25H85.125L85.375 51.75V52.375L84.875 53H84.5ZM11.125 55.625V55.25L12.125 55H13.125L13.875 55.25V55.625L13.125 55.75H12.125L11.125 55.625ZM87.625 56.75L87.5 56.625C87.9167 55.7083 88.2917 55.25 88.625 55.25C88.875 55.25 89 55.5833 89 56.25V56.375C88.8333 56.625 88.5417 56.75 88.125 56.75H87.625ZM9.75 3.125L9.375 2.625C9.375 2.45833 10.125 2.33333 11.625 2.25L12.25 2.375C12.25 2.70833 11.4167 2.95833 9.75 3.125ZM91.125 54.375L91.625 54H91.875L92 54.375C92 55.7083 91.875 56.375 91.625 56.375L91.125 55.875V54.375ZM20.75 61.375V61.125C21.4167 60.4583 22.125 60.125 22.875 60.125V60.375C22.4583 60.875 21.875 61.2917 21.125 61.625L20.75 61.375ZM47.5 20.75L47.625 20.375C48.375 20.375 48.7917 20.5 48.875 20.75V21.125L48.125 21.75H48C47.8333 21.75 47.6667 21.4167 47.5 20.75ZM21.125 11.375V11.125C21.125 10.7917 21.5 10.5417 22.25 10.375H23.25V10.75C23.25 11.0833 22.7083 11.2917 21.625 11.375H21.125ZM46.75 51.875L47.25 51.25H48.125L48.5 51.625V51.75L48 52.25H47.125L46.75 51.875ZM65.125 7.25H65.875C66.625 7.25 67.0417 7.41667 67.125 7.75L66.875 8H66.375C65.5417 8 65.125 7.875 65.125 7.625V7.25ZM18.875 26.125L19.125 25.875H19.25L19.875 26.5V27.125L19.625 27.375H19.375L18.875 26.875V26.125ZM18.875 1.75L19.125 1.375H20L20.125 1.625C20.125 2.20833 19.8333 2.5 19.25 2.5L18.875 2.125V1.75ZM38 9.375L38.25 9.125C38.8333 9.375 39.125 9.79167 39.125 10.375V10.625C38.375 10.625 38 10.2083 38 9.375ZM43.75 17.875H44C44.5833 17.875 44.9167 18.0417 45 18.375V18.875H44.75C44.0833 18.875 43.75 18.5417 43.75 17.875ZM44.125 57.125L44.5 56.625H45.25L45.625 57.125V57.375L44.875 57.5L44.125 57.375V57.125ZM24.25 54.125H25.125L25.5 54.5L25.125 55L24.25 54.875V54.125ZM6 58.25H6.25L6.625 58.625V59.5H6.25L6 59.125V58.25ZM79.625 45.5L80 45.125H80.25V46.25H79.875L79.625 46V45.5ZM18.625 4.125L18.875 3.75H19.375L19.625 4.375L19.125 4.625H18.875L18.625 4.375V4.125ZM80 49.125L80.5 48.5L80.875 49V49.25L80.5 49.75L80 49.25V49.125ZM21.125 7.25L21.625 7.5V7.75L21.25 8H21.125L20.875 7.75L21.125 7.25ZM47.5 49L47.75 48.625H48L48.125 49L48 49.5L47.5 49.375V49ZM15.625 26.875H15.75L16.125 27.125V27.75H16L15.625 27.375V26.875ZM14.5 7.25L14.75 6.875H15.25V7.125L14.75 7.5H14.5V7.25ZM19.375 57.125V57.25H19.125C19.2083 57.1667 19.2917 57.125 19.375 57.125ZM123.375 5.75L119.875 6L117.625 5.75L105.25 7L103 8L103.25 13.375L103.5 17.5L103.875 17.875L111.5 17.5C111.917 17.5 112.292 17.6667 112.625 18C115.391 22.9792 117.992 28.188 120.426 33.6263L125.553 22.9317C123.158 16.8939 122.39 13.875 123.25 13.875C124.417 13.7083 124.458 11 123.375 5.75ZM143.704 39.7915L147.282 32.3279L147.198 32.2876C152.845 20.918 154.154 15.1971 151.125 15.125C150.958 15.125 150.75 15.1667 150.5 15.25C151 11.9167 151.125 9.08333 150.875 6.75L151.5 6.25C162.333 6.5 167.75 6.91667 167.75 7.5C168.167 7.5 168.375 9.625 168.375 13.875C167.792 16.375 167.042 17.625 166.125 17.625C165.208 17.5417 164.708 17.5417 164.625 17.625C164.542 17.7083 164.75 17.8333 165.25 18H164.375C161.125 23.5 159.5 27.0833 159.5 28.75C158.5 32.8333 157.208 35.6667 155.625 37.25C153.042 44.75 151.042 49.9167 149.625 52.75C149.042 53.4167 148.458 55.5833 147.875 59.25L142.5 68C139.917 73.8333 136.375 79.4167 131.875 84.75L125.75 88.875C123.25 89.5417 121.292 89.875 119.875 89.875C113.708 89.875 110.625 89.25 110.625 88C109.958 87.5833 109.417 86.4167 109 84.5C107.75 83.25 106.208 78.875 104.375 71.375V71.125C104.375 70.2917 105.208 69.875 106.875 69.875C108.292 69.875 110.792 69.125 114.375 67.625C115.458 67.625 116.958 71.4583 118.875 79.125C119.458 80.875 119.917 81.75 120.25 81.75H121.25C121.917 81.5 122.583 80.5 123.25 78.75C123.75 78.75 125.417 76.5833 128.25 72.25C129.5 69.5833 130.833 67.125 132.25 64.875L132.625 63.375V62.9036L139.35 48.875H139.625C140.463 48.875 141.823 45.8472 143.704 39.7915ZM153.625 9L155.125 9.375C155.125 9.20833 155.5 9.125 156.25 9.125H158.125C159.792 9.29167 160.625 9.54167 160.625 9.875V10.125L158.5 9.875H158.25L156.5 10.25L153.625 9ZM163.625 9.25L163.875 9H165.75C166.25 9 166.542 9.125 166.625 9.375V9.75L164.375 10C164.042 9.91667 163.792 9.70833 163.625 9.375V9.25ZM104.5 14L104.75 13.875C107.833 14.125 109.375 14.4167 109.375 14.75C109.375 15.1667 108.5 15.4167 106.75 15.5H105.125L104.5 15V14ZM115.875 15.5L116.25 15.25H116.625C117.375 15.6667 117.75 16.5833 117.75 18V19.375H117.625C116.458 17.7917 115.875 16.5 115.875 15.5ZM162.125 13.625V13.375C162.375 12.7917 163.708 12.375 166.125 12.125H166.625L167 12.5C167 12.9167 165.542 13.4583 162.625 14.125L162.125 13.625ZM160 13L160.375 12.75H160.75L161.625 13.625V14.25L161.5 14.375C160.75 14.375 160.25 14.125 160 13.625V13ZM159.25 17H159.875V17.625H159.25V17ZM159 20.625H159.375L159.125 22.625C156.958 29.5417 155.292 33.875 154.125 35.625H153.875L154.75 33.125C154 32.2917 153.625 31.7083 153.625 31.375V30.5C153.958 30.25 155.75 26.9583 159 20.625ZM141.125 56.5V55.875C142.792 52.125 143.792 49.6667 144.125 48.5C145.125 46.6667 146.25 44.625 147.5 42.375C148 41.4583 148.333 40.8333 148.5 40.5C148.917 39.75 148.917 39.7917 148.5 40.625L148.875 41.625V41.75C148.375 42 148.125 42.4583 148.125 43.125C147.292 43.875 146.875 44.3333 146.875 44.5C144.792 52.5 143.083 56.5 141.75 56.5H141.125ZM149.625 48.125H149.5C149.667 46.7083 150.333 44.5833 151.5 41.75C152 39.6667 152.417 38.625 152.75 38.625H152.875C152.042 44.9583 150.958 48.125 149.625 48.125ZM140.5 64.875H139.875V64.625C141.458 60.5417 142.833 58.5 144 58.5V58.625C142.25 62.7917 141.083 64.875 140.5 64.875ZM135.125 60.875V60.75C135.125 59.9167 135.333 59.4167 135.75 59.25H136.25V60C136.25 60.5833 135.917 60.875 135.25 60.875H135.125ZM137.875 71L137.75 70.625L138.75 69.125H139C139 69.7917 138.625 70.4167 137.875 71ZM109.875 72L110.25 71.625H110.875C111.958 72.4583 112.5 73.5 112.5 74.75V75.375L112 75.5L111 74.5C110.917 73.75 110.542 72.9167 109.875 72ZM126.625 79.75V79.625C127.125 78.125 127.875 77.125 128.875 76.625H129.125C128.292 78.7083 127.458 79.75 126.625 79.75ZM112.5 77.75H112.75C113.5 78.3333 113.875 78.9583 113.875 79.625V79.875L113.5 80.125C112.833 79.7083 112.5 79.0417 112.5 78.125V77.75ZM128.5 83.75L129.625 82.25C130.042 80.75 130.625 80 131.375 80H131.875C132.208 80 132.542 80.1667 132.875 80.5C132.458 81.6667 131.125 82.8333 128.875 84H128.75L128.5 83.75ZM115.375 82.5H116.125C116.958 82.5833 117.375 82.8333 117.375 83.25L117 83.5H115.875L115.375 82.875V82.5ZM124.875 86.5H124.375L122.125 84.875C122.125 84.625 122.5 84.5 123.25 84.5H124.375C124.958 84.5 125.292 84.625 125.375 84.875V85.5C125.375 86.0833 125.208 86.4167 124.875 86.5ZM117.625 86.375L117.75 86H119.75C120.75 86.0833 121.25 86.3333 121.25 86.75V86.875L121 87.25H119.25C118.417 87.25 117.875 86.9583 117.625 86.375ZM191.875 0.375C191.875 0.291667 191.417 0.166667 190.5 0C184.083 0.416667 178.083 1 172.5 1.75C171.833 3 171.25 3.79167 170.75 4.125V4.375L170.875 4.5C171.458 4.5 171.958 5.58333 172.375 7.75V8.75C172.375 9.66667 172.042 10.3333 171.375 10.75C171.375 11.5833 172.083 12.375 173.5 13.125C175.833 12.7083 177.792 12.5 179.375 12.5C180.958 12.5 181.75 12.875 181.75 13.625L181.5 20.5L180.625 49.75C180.625 50.5 180.333 50.9167 179.75 51C176.417 51.5 174.75 52.0417 174.75 52.625C171.333 53.625 169.625 54.5 169.625 55.25V55.375C170.375 60.4583 171.167 63 172 63L188.25 64C192.25 63.8333 194.5 63.6667 195 63.5C196.917 63.5 197.792 61.7917 197.625 58.375L197.5 55.375V54.375C197 53.2083 195.625 52.625 193.375 52.625H193.125C193.042 53.2083 192.875 53.5 192.625 53.5H192.125L191.625 53L191.25 26.875V16.75L191.375 16.125C194.292 14.0417 196.917 13 199.25 13C200.75 13 202.25 13.2917 203.75 13.875C209.417 17.2917 212.25 19.9167 212.25 21.75V22H212.125L211 21.375C210.5 21.375 210.208 22.4167 210.125 24.5C210.125 25.5833 210.375 27.0417 210.875 28.875L210.625 42.625C210.625 45.2083 210.833 47.5417 211.25 49.625C211.25 50.2917 210.917 50.625 210.25 50.625C207.75 51.375 206.5 52 206.5 52.5V53C206.5 57.25 207.208 59.375 208.625 59.375L209.875 59.125L220.5 60L223.625 59.375C223.875 58.9583 224.458 56.6667 225.375 52.5C225.375 52.0833 224.917 51.7917 224 51.625C221.917 51.0417 220.875 48.875 220.875 45.125L221 41.5V32.5L220.75 29.625C220.917 26.4583 221.083 24.5 221.25 23.75C222.333 21 225.583 19.375 231 18.875C235.25 18.875 238.333 20.125 240.25 22.625C240.25 23.375 240.333 23.75 240.5 23.75L241.5 23.25H242.375L243.375 23.5C245.625 25.25 246.75 26.7917 246.75 28.125L247 35.625V35.875C246.417 39.125 246.167 44 246.25 50.5C246.75 53.0833 245.5 54.2083 242.5 53.875C240.833 53.875 240 54.4167 240 55.5V57.125L240.625 60.5V60.75L240.25 62V62.125L241.875 63.75C241.875 64.4167 241.958 64.75 242.125 64.75H243.375L250.625 64.5L254.625 65C257.292 65 260.375 64.7083 263.875 64.125H265.625C265.625 62.875 265.542 61 265.375 58.5C265.375 53.5833 264.708 51.125 263.375 51.125C261.375 51.7917 260.042 52.125 259.375 52.125H258.875C258.458 51.9583 258.25 51.5 258.25 50.75V47.375C256.417 31.875 255.125 23.3333 254.375 21.75C254.375 17.8333 250.833 13.0833 243.75 7.5C240.083 4.91667 236.542 3.625 233.125 3.625C232.375 3.625 231.417 3.91667 230.25 4.5C221.667 9 216.958 11.25 216.125 11.25L215.625 11.125C215.458 10.7083 214.417 9.25 212.5 6.75C210.083 3.08333 205.25 1.25 198 1.25L191.625 1.375H191.375V1.25L191.875 0.375ZM185.125 17.625V11.375C185.125 10.7917 185.292 10.4583 185.625 10.375C186.208 10.7083 186.5 11.375 186.5 12.375V12.5C186.417 21.5833 186.042 26.125 185.375 26.125H185.25L185 25.875V24.625L185.25 22.625L184.375 21.375C184.875 20.125 185.125 18.875 185.125 17.625ZM175.875 10.25C174.375 10.25 173.625 9.83333 173.625 9C173.625 8.33333 176.167 8 181.25 8H181.75V8.375C179.75 9.625 177.792 10.25 175.875 10.25ZM194.375 7.625V7.5C194.458 6.66667 197.375 6.25 203.125 6.25H204.25C205.5 6.25 206.375 7.125 206.875 8.875V9.375H206.5C204.583 7.70833 202.708 6.875 200.875 6.875L194.375 7.625ZM235.25 6C235.25 5.83333 235.5 5.625 236 5.375H236.125C240.375 6.375 242.5 7.29167 242.5 8.125V8.5H240.125C239.042 8.5 238.125 7.95833 237.375 6.875C235.958 6.45833 235.25 6.16667 235.25 6ZM177.25 57.625L177.625 57.25H178.125L178.75 57.625C181.667 57.9583 184.167 58.0417 186.25 57.875L189.5 58V58.5C187.25 58.8333 185.083 59.0417 183 59.125C182.417 59.125 181.958 58.8333 181.625 58.25C178.708 58.9167 177.25 58.7083 177.25 57.625ZM205.125 11.875C203.958 11.875 202.583 11.4583 201 10.625C198.667 10.0417 197.5 9.625 197.5 9.375C197.5 9.20833 197.792 9.08333 198.375 9H199.125C201.458 9 203.583 9.83333 205.5 11.5L205.25 11.875H205.125ZM238.125 16.125L238.5 15.75H240.875C242.125 16.6667 243.042 17.5 243.625 18.25V18.875L243.25 19.125C241.667 19.125 239.958 18.125 238.125 16.125ZM233 11.5V11.25C233.083 10.6667 233.75 10.375 235 10.375H235.25C237.667 10.375 239 10.75 239.25 11.5C239 11.9167 237.167 12.125 233.75 12.125C233.5 12.125 233.25 11.9167 233 11.5ZM248.875 34.875L249.125 34.375H249.875L250.5 35V39.875L249.875 40.5H249.625L249.25 40V39.625L248.875 34.875ZM172.75 54.75H173.125L173.25 54.875L174 61.125H173.625C172.958 61.125 172.333 59.7083 171.75 56.875C172.417 56.2083 172.75 55.5 172.75 54.75ZM213 34L213.25 32.875C213.667 32.875 213.958 34.5 214.125 37.75C214.125 39.0833 213.958 40.125 213.625 40.875H213.25L213 38.625V34ZM190.875 4.125V4C190.875 3.08333 192.5 2.625 195.75 2.625H199.5V2.875L191.375 4.375L190.875 4.125ZM217.125 14.375V13.25C217.375 12.75 217.792 12.5 218.375 12.5H221.5C219.917 14 218.625 14.75 217.625 14.75L217.125 14.375ZM188.5 16.125H188.75C189.167 16.125 189.375 16.8333 189.375 18.25V19.25C189.375 21.5 189.083 22.625 188.5 22.625L188.25 22V20.375C188.25 18.875 188.333 17.4583 188.5 16.125ZM244.75 13.25H245.125C247.042 14.9167 248 16.2083 248 17.125V17.375H247.125V17C245.875 16 245.083 15 244.75 14V13.25ZM225.75 9.625V9.375C225.75 8.20833 227.208 7.16667 230.125 6.25V6.75C227.792 8.66667 226.375 9.625 225.875 9.625H225.75ZM250.125 57.125V56.75C250.125 56.3333 251.625 56.125 254.625 56.125H254.875L255.375 56.375C255.375 56.875 254.167 57.125 251.75 57.125H250.125ZM245.125 58.875V58.625C245.958 58.0417 246.583 57.75 247 57.75H248.875C249.458 57.75 249.792 57.9167 249.875 58.25C249.708 58.6667 249.208 58.875 248.375 58.875H245.125ZM251.5 28.25H251L249.5 26C249.667 25.5833 249.833 25.375 250 25.375H251.125C251.375 25.5417 251.5 25.875 251.5 26.375V27.375V28.25ZM182.5 49.625H185.125C185.042 50.9583 184.458 51.625 183.375 51.625H183C182.75 51.625 182.583 50.9583 182.5 49.625ZM174 5.625L176.375 5.375H179.125L179.5 5.75C179.5 6.08333 177.792 6.25 174.375 6.25L174 6V5.625ZM175.125 56L175 54.125C175 53.7083 175.167 53.5 175.5 53.5H176.75L177.875 53.75V54.125C176.792 54.5417 175.958 55.1667 175.375 56H175.125ZM190.875 57.875L191.375 57.5C193.042 57.5 193.875 57.7083 193.875 58.125V58.625L193.25 59.125C191.667 59.0417 190.875 58.625 190.875 57.875ZM187 50.375V50.125L189.5 52.25C189.5 52.6667 189.417 52.875 189.25 52.875H188.5C187.5 52.875 187 52.0417 187 50.375ZM209.875 11.5H210C211.417 12 212.125 12.3333 212.125 12.5V13.875C210.625 13.2083 209.875 12.4583 209.875 11.625V11.5ZM247.375 20.5H247.625C248.708 21.5833 249.25 22.7083 249.25 23.875V24.125C248.667 24.125 248.042 23 247.375 20.75V20.5ZM203.5 4H204.25C206.333 4 207.375 4.25 207.375 4.75V5H207.125C206.625 5 205.417 4.79167 203.5 4.375V4ZM209.375 8.5H209.625C210.625 9.25 211.333 10.125 211.75 11.125V11.25H211.375C210.792 10.9167 210.125 10.1667 209.375 9V8.5ZM189.375 56.625L192.625 56.375H193.625V56.875L191.75 57.125H189.375V56.625ZM222.375 11.125L222.25 10.875C222.417 10.4583 223.125 10.125 224.375 9.875L224.75 10C224.75 10.6667 224.208 11.0417 223.125 11.125H222.375ZM254.125 53L253.75 52.625V52.375C253.75 51.875 253.917 51.5 254.25 51.25H254.75L255 51.75V52.375L254.5 53H254.125ZM180.75 55.625V55.25L181.75 55H182.75L183.5 55.25V55.625L182.75 55.75H181.75L180.75 55.625ZM257.25 56.75L257.125 56.625C257.542 55.7083 257.917 55.25 258.25 55.25C258.5 55.25 258.625 55.5833 258.625 56.25V56.375C258.458 56.625 258.167 56.75 257.75 56.75H257.25ZM181.25 2.25L181.875 2.375C181.875 2.70833 181.042 2.95833 179.375 3.125L179 2.625C179 2.45833 179.75 2.33333 181.25 2.25ZM260.75 54.375L261.25 54H261.5L261.625 54.375C261.625 55.7083 261.5 56.375 261.25 56.375L260.75 55.875V54.375ZM190.375 61.375V61.125C191.042 60.4583 191.75 60.125 192.5 60.125V60.375C192.083 60.875 191.5 61.2917 190.75 61.625L190.375 61.375ZM217.125 20.75L217.25 20.375C218 20.375 218.417 20.5 218.5 20.75V21.125L217.75 21.75H217.625C217.458 21.75 217.292 21.4167 217.125 20.75ZM190.75 11.375V11.125C190.75 10.7917 191.125 10.5417 191.875 10.375H192.875V10.75C192.875 11.0833 192.333 11.2917 191.25 11.375H190.75ZM216.375 51.875L216.875 51.25H217.75L218.125 51.625V51.75L217.625 52.25H216.75L216.375 51.875ZM234.75 7.25H235.5C236.25 7.25 236.667 7.41667 236.75 7.75L236.5 8H236C235.167 8 234.75 7.875 234.75 7.625V7.25ZM188.5 26.125L188.75 25.875H188.875L189.5 26.5V27.125L189.25 27.375H189L188.5 26.875V26.125ZM188.5 1.75L188.75 1.375H189.625L189.75 1.625C189.75 2.20833 189.458 2.5 188.875 2.5L188.5 2.125V1.75ZM207.625 9.375L207.875 9.125C208.458 9.375 208.75 9.79167 208.75 10.375V10.625C208 10.625 207.625 10.2083 207.625 9.375ZM213.375 17.875H213.625C214.208 17.875 214.542 18.0417 214.625 18.375V18.875H214.375C213.708 18.875 213.375 18.5417 213.375 17.875ZM213.75 57.125L214.125 56.625H214.875L215.25 57.125V57.375L214.5 57.5L213.75 57.375V57.125ZM193.875 54.125H194.75L195.125 54.5L194.75 55L193.875 54.875V54.125ZM175.625 58.25H175.875L176.25 58.625V59.5H175.875L175.625 59.125V58.25ZM249.25 45.5L249.625 45.125H249.875V46.25H249.5L249.25 46V45.5ZM188.25 4.125L188.5 3.75H189L189.25 4.375L188.75 4.625H188.5L188.25 4.375V4.125ZM249.625 49.125L250.125 48.5L250.5 49V49.25L250.125 49.75L249.625 49.25V49.125ZM190.75 7.25L191.25 7.5V7.75L190.875 8H190.75L190.5 7.75L190.75 7.25ZM217.125 49L217.375 48.625H217.625L217.75 49L217.625 49.5L217.125 49.375V49ZM185.25 26.875H185.375L185.75 27.125V27.75H185.625L185.25 27.375V26.875ZM184.125 7.25L184.375 6.875H184.875V7.125L184.375 7.5H184.125V7.25ZM189 57.125V57.25H188.75C188.833 57.1667 188.917 57.125 189 57.125Z" fill="white"/>
</svg>
